. 
  
http://www.torrentday.com/        :     The Hottest Private Tracker On The Net!!!


               www . TorrentDay . Com 
(((((((((((((= Enjoy No RAR releases =))))))))))))))))))))


...................................NFO:....................................

.*******************************************************************************
              1941.1979.Collectors.Edition.DVDRip.AC3.X264-BARC0DE
*******************************************************************************

-------------------------------------------------------------------------------
                              General Information
-------------------------------------------------------------------------------
Type.................: Movie
Name.................: 1941
Movie Information....: http://www.imdb.com/title/tt0078723/
Genre................: Comedy | War
-------------------------------------------------------------------------------
                                    PLOT
-------------------------------------------------------------------------------
Hysterical Californians prepare for a Japanese invasion in the days after Pearl Harbor. 

-------------------------------------------------------------------------------
                                    CAST
-------------------------------------------------------------------------------
Dan Aykroyd	... 	Sgt. Frank Tree
Ned Beatty	... 	Ward Douglas
John Belushi	... 	Capt. Wild Bill Kelso
Lorraine Gary	... 	Joan Douglas
Murray Hamilton	... 	Claude Crumn
Christopher Lee	... 	Capt. Wolfgang von Kleinschmidt
Tim Matheson	... 	Capt. Loomis Birkhead
Toshir Mifune	... 	Cmdr. Akiro Mitamura (as Toshiro Mifune)
Warren Oates	... 	Col. 'Madman' Maddox
Robert Stack	... 	Maj. Gen. Joseph W. Stilwell
Treat Williams	... 	Cpl. Chuck 'Stretch' Sitarski
Nancy Allen	... 	Donna Stratton
Lucille Benson	... 	Gas Mama (Eloise) (as Lucille Bensen)
Jordan Brian	... 	Macey Douglas
John Candy	... 	Pvt. Foley

-------------------------------------------------------------------------------
                                    MEDiA iNFO
-------------------------------------------------------------------------------

General
Complete name                    : 1941.1979.Collectors.Edition.DVDRip.AC3.X264-BARC0DE.mkv
Format                           : Matroska
File size                        : 1.47 GiB
Duration                         : 2h 25mn
Overall bit rate                 : 1 452 Kbps

Video
ID                               : 1
Format                           : AVC
Format/Info                      : Advanced Video Codec
Format profile                   : High@L3.0
Format settings, CABAC           : Yes
Format settings, ReFrames        : 3 frames
Muxing mode                      : Container profile=Unknown@3.0
Codec ID                         : V_MPEG4/ISO/AVC
Duration                         : 2h 25mn
Bit rate                         : 988 Kbps
Width                            : 720 pixels
Height                           : 304 pixels
Display aspect ratio             : 2.35:1
Frame rate                       : 23.976 fps
Color space                      : YUV
Chroma subsampling               : 4:2:0
Bit depth                        : 8 bits
Scan type                        : Progressive
Bits/(Pixel*Frame)               : 0.188
Stream size                      : 1 014 MiB (67%)
Writing library                  : x264 core 79

Audio
ID                               : 2
Format                           : AC-3
Format/Info                      : Audio Coding 3
Mode extension                   : CM (complete main)
Codec ID                         : A_AC3
Duration                         : 2h 25mn
Bit rate mode                    : Constant
Bit rate                         : 448 Kbps
Channel(s)                       : 6 channels
Channel positions                : Front: L C R, Side: L R, LFE
Sampling rate                    : 48.0 KHz
Stream size                      : 466 MiB (31%)
Language                         : English

Text #1
ID                               : 3
Format                           : VobSub
Codec ID                         : S_VOBSUB
Codec ID/Info                    : The same subtitle format used on DVDs
Language                         : English

Text #2
ID                               : 4
Format                           : VobSub
Codec ID                         : S_VOBSUB
Codec ID/Info                    : The same subtitle format used on DVDs
Language                         : French

Text #3
ID                               : 5
Format                           : VobSub
Codec ID                         : S_VOBSUB
Codec ID/Info                    : The same subtitle format used on DVDs
Language                         : Spanish

Menu
00:00:00.000                     : Chapter 1
00:01:23.616                     : Chapter 2
00:03:45.091                     : Chapter 3
00:06:41.884                     : Chapter 4
00:10:38.174                     : Chapter 5
00:11:52.182                     : Chapter 6
00:14:13.298                     : Chapter 7
00:15:57.565                     : Chapter 8
00:17:42.236                     : Chapter 9
00:21:07.057                     : Chapter 10
00:24:53.271                     : Chapter 11
00:29:14.920                     : Chapter 12
00:31:27.439                     : Chapter 13
00:32:33.672                     : Chapter 14
00:36:28.139                     : Chapter 15
00:38:43.896                     : Chapter 16
00:41:02.918                     : Chapter 17
00:42:35.444                     : Chapter 18
00:45:28.900                     : Chapter 19
00:47:22.168                     : Chapter 20
00:51:10.162                     : Chapter 21
00:54:26.074                     : Chapter 22
00:57:20.629                     : Chapter 23
00:58:14.758                     : Chapter 24
00:59:13.984                     : Chapter 25
01:00:51.581                     : Chapter 26
01:03:03.980                     : Chapter 27
01:06:43.538                     : Chapter 28
01:09:46.020                     : Chapter 29
01:13:46.631                     : Chapter 30
01:15:27.866                     : Chapter 31
01:18:28.029                     : Chapter 32
01:19:50.324                     : Chapter 33
01:21:58.327                     : Chapter 34
01:23:30.027                     : Chapter 35
01:26:51.553                     : Chapter 36
01:28:06.633                     : Chapter 37
01:30:04.017                     : Chapter 38
01:33:04.130                     : Chapter 39
01:34:16.035                     : Chapter 40
01:37:38.275                     : Chapter 41
01:41:00.794                     : Chapter 42
01:42:53.428                     : Chapter 43
01:46:34.786                     : Chapter 44
01:48:31.570                     : Chapter 45
01:50:58.983                     : Chapter 46
01:52:22.550                     : Chapter 47
01:55:46.108                     : Chapter 48
01:57:24.773                     : Chapter 49
01:58:51.043                     : Chapter 50
02:01:00.859                     : Chapter 51
02:02:24.126                     : Chapter 52
02:03:45.691                     : Chapter 53
02:05:44.646                     : Chapter 54
02:07:45.851                     : Chapter 55
02:10:09.277                     : Chapter 56
02:13:46.665                     : Chapter 57
02:15:31.737                     : Chapter 58
02:17:55.213                     : Chapter 59
02:19:13.128                     : Chapter 60